<?xml version="1.0" standalone="no"?>
<!DOCTYPE svg PUBLIC "-//W3C//DTD SVG 1.1//EN" "http://www.w3.org/Graphics/SVG/1.1/DTD/svg11.dtd" >
<!--
2013-9-30: Created.
-->
<svg>
<metadata>
Created by iconfont
</metadata>
<defs>

<font id="iconfont" horiz-adv-x="1024" >
  <font-face
    font-family="iconfont"
    font-weight="500"
    font-stretch="normal"
    units-per-em="1024"
    ascent="896"
    descent="-128"
  />
    <missing-glyph />
    
    <glyph glyph-name="error-reverse" unicode="&#58923;" d="M512 831.696462c-247.25636 0-447.696462-200.440102-447.696462-447.696462 0-247.254314 200.440102-447.696462 447.696462-447.696462s447.696462 200.440102 447.696462 447.696462S759.25636 831.696462 512 831.696462zM710.491727 230.733291c12.491499-12.491499 12.489452-32.729425-0.002047-45.220924-6.246261-6.246261-14.429641-9.370415-22.611997-9.370415s-16.363689 3.121084-22.60995 9.366322L512 338.77702899999997 358.730221 185.50827300000003c-6.246261-6.246261-14.429641-9.366322-22.611997-9.366322s-16.365736 3.125177-22.611997 9.370415c-12.491499 12.491499-12.491499 32.729425 0 45.220924l153.268756 153.266709L313.50725 537.269779c-12.491499 12.491499-12.489452 32.729425 0.002047 45.220924s32.729425 12.495592 45.220924 0.004093l153.268756-153.268756 153.268756 153.268756c12.491499 12.491499 32.729425 12.487406 45.220924-0.004093s12.493545-32.729425 0.002047-45.220924L557.225017 384 710.491727 230.733291z"  horiz-adv-x="1024" />

    
    <glyph glyph-name="actionsheet" unicode="&#58919;" d="M959.50101 54.429913000000056L513.817392 286.38272900000004 64.49899 54.429913000000056 64.49899 185.77945l449.318402 233.492892 445.683619-233.492892L959.50101 54.429913000000056zM959.50101 353.41644799999995L513.817392 586.13879 64.49899 353.41644799999995 64.49899 482.842169l449.318402 236.186234 445.683619-236.186234L959.50101 353.41644799999995z"  horiz-adv-x="1024" />

    
    <glyph glyph-name="calendar" unicode="&#58906;" d="M448.84103 127.55025699999999c3.412726 2.275833 6.255471 3.990894 9.099239 6.843872 2.844791 2.275833 5.118578 5.129834 7.395434 7.962346 2.273786 2.852978 4.548596 6.266727 6.255471 9.67843l-0.568958 0c1.705851 3.432169 3.411703 6.843872 3.981684 10.835789 0.568958 3.970428 1.137916 8.53949 1.137916 12.510942 0 5.128811-0.568958 9.117658-1.137916 13.110599-0.569982 4.548596-1.705851 7.962346-3.411703 11.374048-1.706875 3.431146-3.412726 6.842849-5.687536 9.69685-2.27481 2.834558-4.548596 5.688559-7.393387 7.961322l0 0c-2.27481 2.275833-5.117554 4.550643-8.53028 6.266727-2.843768 1.695618-6.256494 3.411703-10.237155 4.548596-3.411703 1.136893-7.392364 2.27481-11.374048 2.852978-4.559852 0.559748-8.540514 0.559748-13.090133 0.559748l0 0c-3.980661 0-7.962346 0-11.374048 0-3.411703-0.559748-7.393387-0.559748-10.237155-1.137916l-6.823406-1.136893 0 6.843872 0 32.446993 0 7.40055 7.393387-1.695618c0 0 0.568958 0 1.136893 0 0.568958 0 1.137916 0 1.137916 0l0 0 12.510942-0.577145 0 0c3.981684 0 7.393387 0.577145 10.807137 1.13587 3.420913 0.578168 6.833639 1.136893 10.246365 2.275833l0 0c3.411703 1.136893 6.255471 2.275833 9.099239 3.989871 2.844791 1.137916 5.687536 2.854001 7.962346 5.128811 2.275833 1.696642 4.549619 3.989871 6.256494 6.265704l0 0c2.27481 2.833535 3.980661 5.128811 5.117554 8.540514l0 0c1.705851 2.834558 2.844791 5.688559 3.411703 9.100262l0 0c0.568958 3.431146 1.137916 7.402597 1.137916 10.834766l0 0c0 7.962346-1.137916 14.785751-3.411703 20.491707-2.27481 5.687536-5.686513 10.255575-10.236132 14.228049-5.118578 3.989871-10.237155 6.843872-16.492626 8.540514-5.687536 2.275833-12.522198 2.854001-19.915585 2.854001l0 0c-4.548596 0-9.099239 0-12.510942-1.137916-3.980661-0.577145-7.961322-2.275833-11.375072-3.989871l0 0c-2.843768-1.137916-6.255471-3.411703-9.099239-5.687536-2.843768-2.275833-5.118578-4.550643-7.393387-7.402597l0 0c-2.275833-2.852978-3.980661-6.265704-5.688559-9.679453-1.705851-3.431146-2.842745-6.842849-3.980661-10.813277-1.137916-3.990894-1.705851-8.559956-2.27481-12.531408-0.568958-3.990894-1.136893-8.540514-1.136893-13.110599l0-5.686513-5.696746 0-37.535895 0-5.686513 0 0 6.264681c0.568958 7.962346 1.136893 15.365966 2.273786 22.76754 1.706875 7.40362 3.411703 14.247492 5.688559 21.071921 2.273786 6.843872 4.549619 13.110599 7.961322 18.797112l0 0c3.411703 5.687536 6.824429 10.8143 11.375072 15.943111l0 0c3.980661 4.549619 9.100262 9.118682 14.217816 13.090133 5.118578 3.431146 10.815323 6.824429 17.639752 9.67843l0 0c6.256494 2.852978 13.080923 4.549619 20.47431 6.264681l0 0c6.824429 1.137916 14.786775 1.716084 22.748097 1.716084l0 0c6.825452 0 13.659091-0.578168 20.484543-1.137916 6.824429-1.137916 13.0799-2.293229 18.767436-3.989871 6.255471-2.27481 11.943007-4.550643 17.629519-7.40362 5.118578-2.275833 10.237155-5.706979 14.787798-9.677407l0 0c4.549619-3.431146 8.53949-7.981788 12.521175-12.531408 3.411703-5.129834 6.823406-10.256598 9.100262-16.501836l0 0c2.841721-5.706979 4.549619-11.972683 5.677303-18.797112 1.716084-6.843872 2.27481-14.227026 2.27481-22.208814l0 0c0-7.402597-1.136893-14.806217-3.40147-22.209838l0 0c-2.276856-6.824429-5.688559-13.666254-10.238179-19.354813-4.549619-6.265704-9.108448-11.394515-14.795984-15.943111-2.27481-1.716084-4.548596-3.989871-7.393387-5.127787 5.687536-2.276856 10.237155-4.550643 14.795984-7.40362 7.962346-5.127787 14.217816-11.393491 19.336394-19.355837 5.108345-7.980765 8.521071-15.942087 11.374048-25.061792l0 0c2.275833-9.100262 3.411703-18.218944 3.411703-28.473495l0 0c0-8.54256-0.557702-16.502859-2.273786-23.905456-1.716084-7.40362-3.990894-14.806217-6.824429-21.072945-2.854001-6.823406-6.825452-12.530384-10.807137-18.216897-3.981684-5.128811-8.53028-10.256598-13.659091-14.807241l0 0c-5.117554-3.989871-10.806113-7.961322-17.060561-11.393491-5.687536-2.833535-12.511965-5.687536-19.336394-7.961322-6.825452-2.27481-13.649881-3.989871-21.042245-4.550643-7.393387-1.155313-14.795984-1.716084-22.190395-1.716084l0 0c-8.531304 0-15.924691 0.560772-23.886013 1.716084-7.393387 1.136893-14.786775 2.835581-21.61018 5.110391l0 0c-6.825452 2.851954-13.080923 5.704932-18.777669 9.117658-6.256494 3.412726-11.374048 7.961322-16.492626 12.531408-4.549619 5.128811-9.100262 10.237155-12.512988 15.942087l0 0c-3.980661 5.688559-6.823406 12.531408-9.667174 19.35686-2.275833 6.824429-4.549619 14.227026-5.687536 22.207791-1.137916 7.402597-1.705851 15.365966-1.137916 24.483624l0 5.688559 5.687536 0 36.966936 0 5.686513 0 0-5.688559c0.568958-9.676383 2.27481-18.796088 4.549619-26.75741 2.852978-7.980765 6.834662-14.806217 11.952216-21.071921 5.118578-5.687536 11.375072-10.255575 18.768459-13.090133 7.392364-2.852978 15.923668-4.569062 26.1598-4.569062 3.981684 0 8.531304 0 12.521175 1.136893 3.980661 0.578168 7.961322 1.717108 11.375072 2.852978l0 0C442.017624 124.138554 445.429327 125.85361499999999 448.84103 127.55025699999999L448.84103 127.55025699999999zM690.585863 79.16117699999995l-37.555337 0-5.688559 0 0 5.686513L647.341966 310.33116299999995 571.694055 310.33116299999995l-5.687536 0 0 5.705955 0 30.749328 0 5.687536 5.687536 0c5.127787 0 10.238179 0 15.365966 0.577145 5.108345 0.560772 9.677407 1.137916 14.786775 1.697665l0 0c4.548596 1.136893 9.100262 2.275833 13.08911 3.411703l0 0c3.971451 1.716084 7.962346 3.432169 11.933797 5.705955 3.412726 1.697665 6.824429 3.971451 10.236132 6.824429l0 0c2.852978 2.854001 5.688559 6.265704 8.540514 9.67843l0 0c2.275833 3.432169 4.550643 7.980765 6.246261 12.531408 1.716084 4.549619 3.411703 9.67843 3.990894 15.384385l1.136893 4.549619 4.549619 0 29.014824 0 5.685489 0 0-5.706979 0-322.280054 0-5.686513L690.585863 79.16117699999995zM116.093577 551.7557019999999l791.201933 0L907.29551 666.791691c0 9.117658-3.989871 18.21792-10.236132 24.483624l0-0.558725c-6.265704 6.246261-14.786775 10.237155-24.466228 10.237155l-74.509994 0 0-54.654784c0-6.843872-2.855024-13.109576-7.40362-18.237363-4.549619-4.549619-11.374048-7.402597-18.198477-7.402597-7.385201 0-13.649881 2.852978-18.199501 7.402597-4.548596 5.127787-7.384178 11.393491-7.384178 18.237363l0 54.654784L276.490683 700.953745l0-54.654784c0-6.843872-2.842745-13.109576-7.392364-18.237363-5.118578-4.549619-11.375072-7.402597-18.200524-7.402597l0 0c-7.393387 0-13.648858 2.852978-18.198477 7.402597-5.118578 5.127787-7.962346 11.393491-7.962346 18.237363l0 54.654784-74.520227 0 0 0c-9.66922 0-18.198477-3.989871-24.455995-9.67843l0 0c-6.255471-6.265704-9.667174-15.365966-9.667174-24.483624L116.093577 551.7557019999999zM897.059378-0.5553989999999658c6.246261 6.265704 10.236132 14.805194 10.236132 24.482601L907.29551 500.513644 116.093577 500.513644l0-476.586442 0 0c0-9.677407 3.411703-18.216897 9.667174-24.482601 6.257517-6.265704 14.786775-10.257621 24.455995-10.257621l0 0 722.376405 0 0 0C882.272603-10.813021000000049 890.793674-6.821102999999994 897.059378-0.5553989999999658L897.059378-0.5553989999999658zM798.083156 752.772948l74.509994 0 0 0c23.887037 0 45.499263-9.67843 60.864206-25.043373 15.364943-15.962553 25.022906-37.592177 25.022906-60.938907l0 0 0-642.86449 0 0c0-23.924899-9.657964-45.556569-25.022906-60.939931l0 0c-15.364943-15.364943-36.977169-25.042349-60.864206-25.042349l0 0L150.216745-62.05610200000001l0 0c-23.886013 0-44.929282 9.677407-60.853973 25.042349l0 0c-15.363919 15.383362-25.03314 37.015032-25.03314 60.939931L64.329633 666.791691c0 23.346731 9.66922 44.976354 25.03314 60.360739 15.924691 15.943111 37.535895 25.620517 60.853973 25.620517l74.520227 0L224.736972 807.428755l0 0 0 0 0 0c0 6.843872 2.843768 13.109576 7.962346 18.23634 4.549619 4.550643 10.80509 7.40362 17.630542 7.40362l0.567935 0c6.825452 0 13.080923-2.852978 18.200524-7.40362l0 0c4.549619-5.127787 7.392364-11.393491 7.392364-18.23634l0-54.655807 470.406696 0L746.89738 807.428755l0 0 0 0 0 0c0 6.843872 2.835581 13.109576 7.384178 18.23634 4.549619 4.550643 10.8143 7.40362 18.199501 7.40362l0 0c6.824429 0 13.648858-2.852978 18.198477-7.40362l0 0c4.548596-5.127787 7.40362-11.393491 7.40362-18.23634L798.083156 752.772948z"  horiz-adv-x="1024" />

    
    <glyph glyph-name="infinite" unicode="&#59182;" d="M784 144c-64.096 0-124.384 24.96-169.696 70.304l-102.304 102.272-102.272-102.272c-45.344-45.344-105.6-70.304-169.696-70.304s-124.384 24.96-169.728 70.304c-45.344 45.344-70.304 105.6-70.304 169.696s24.96 124.384 70.304 169.728c45.344 45.344 105.6 70.304 169.728 70.304s124.384-24.96 169.696-70.304l102.272-102.272 102.272 102.272c45.344 45.344 105.6 70.304 169.696 70.304s124.384-24.96 169.696-70.304c45.344-45.344 70.304-105.6 70.304-169.728s-24.96-124.384-70.304-169.696c-45.312-45.344-105.6-70.304-169.696-70.304zM681.728 281.696c27.328-27.296 63.648-42.368 102.272-42.336s74.944 15.04 102.272 42.368c27.328 27.328 42.368 63.648 42.368 102.272s-15.04 74.944-42.368 102.272c-27.328 27.328-63.648 42.368-102.272 42.368s-74.944-15.04-102.272-42.368l-102.272-102.272 102.272-102.304zM240 528.64c-38.624 0-74.944-15.04-102.272-42.368s-42.368-63.648-42.368-102.272c0-38.624 15.04-74.944 42.368-102.272s63.648-42.368 102.272-42.368c38.624 0 74.944 15.04 102.272 42.368l102.272 102.272-102.272 102.272c-27.328 27.328-63.648 42.368-102.272 42.368l0 0z"  horiz-adv-x="1024" />

    
    <glyph glyph-name="message" unicode="&#58997;" d="M238.191 473.043c-0-28.277 22.923-51.2 51.2-51.2s51.2 22.923 51.2 51.2c0 28.277-22.923 51.2-51.2 51.2-28.277 0-51.2-22.923-51.2-51.2zM398.47 473.043c0-28.277 22.923-51.2 51.2-51.2s51.2 22.923 51.2 51.2c0 28.277-22.923 51.2-51.2 51.2-28.277 0-51.2-22.923-51.2-51.2zM558.748 473.043c-0-28.277 22.923-51.2 51.2-51.2s51.2 22.923 51.2 51.2c0 28.277-22.923 51.2-51.2 51.2-28.277 0-51.2-22.923-51.2-51.2zM923.826 125.774c-6.678-11.13-2.226-22.261 6.678-28.939 4.452-2.226 6.678-2.226 11.13-2.226 6.678 0 13.357 4.452 17.809 11.13l28.939 48.974c22.261 44.522 35.617 93.496 35.617 142.47 0 100.174-48.974 193.67-131.339 251.548-35.617 158.052-175.861 276.035-345.043 276.035h-195.896c-193.67 0-351.722-158.052-351.722-351.722 0-57.878 13.357-113.53 42.296-164.73l35.617-55.652c6.678-11.13 20.035-13.357 28.939-6.678 11.13 6.678 13.357 20.035 6.678 28.939l-33.391 53.426c-22.261 44.522-35.617 93.496-35.617 144.696 0 171.409 138.017 309.426 309.426 309.426h195.896c171.409 0 309.426-138.017 309.426-309.426s-138.017-309.426-309.426-309.426h-195.896c-55.652 0-109.078 15.583-155.826 42.296 0 0-2.226 2.226-2.226 2.226 0 0 0 0 0 0-11.13 6.678-22.261 2.226-28.939-6.678-2.226-2.226-2.226-4.452-2.226-6.678l-82.365-82.365c-8.904-8.904-8.904-22.261 0-31.165 4.452-4.452 8.904-6.678 15.583-6.678s11.13 2.226 15.583 6.678l80.139 80.139c33.391-17.809 66.783-28.939 102.4-35.617 57.878-86.817 153.6-138.017 256-138.017h169.183c51.2 0 102.4 13.357 146.922 37.843l77.913-77.913c4.452-4.452 8.904-6.678 15.583-6.678s11.13 2.226 15.583 6.678c8.904 8.904 8.904 22.261 0 31.165l-91.27 91.27c-8.904 8.904-22.261 8.904-31.165 0 0 0-2.226-2.226-2.226-2.226-40.070-22.261-84.591-35.617-131.339-35.617h-169.183c-75.687 0-146.922 33.391-195.896 89.043 0 0 0 0 2.226 0h195.896c193.67 0 351.722 158.052 351.722 351.722 0 4.452 0 8.904 0 13.357 51.2-48.974 82.365-117.983 82.365-189.217 0-42.296-11.13-84.591-28.939-122.435l-35.617-48.974z"  horiz-adv-x="1024" />

    
    <glyph glyph-name="card" unicode="&#58936;" d="M614.868879 193.718259 403.517263 193.718259l0 35.225269 211.351616 0L614.868879 193.718259zM368.291994 193.718259 156.941402 193.718259l0 35.225269L368.291994 228.943528 368.291994 193.718259zM614.868879 264.168798 156.941402 264.168798l0 35.225269 457.9285 0L614.869902 264.168798zM121.716132 493.132536l0-105.675808 774.954901 0L896.671033 493.132536 121.716132 493.132536zM896.671033 563.583075c0 19.374256-15.851013 35.225269-35.225269 35.225269L156.941402 598.808344c-19.374256 0-35.225269-15.851013-35.225269-35.225269l0-52.837392 774.954901 0L896.671033 563.583075zM156.941402 105.655598l704.504362 0c19.374256 0 35.225269 15.851013 35.225269 35.225269L896.671033 369.844605 121.716132 369.844605l0-228.963739C121.716132 121.506611 137.567145 105.655598 156.941402 105.655598zM861.445764 70.430328 156.941402 70.430328c-38.923498 0-70.450539 31.527041-70.450539 70.450539L86.490863 563.583075c0 38.923498 31.527041 70.450539 70.450539 70.450539l704.504362 0c38.923498 0 70.450539-31.527041 70.450539-70.450539l0-422.703231C931.896302 101.956346 900.369262 70.430328 861.445764 70.430328z"  horiz-adv-x="1024" />

    
    <glyph glyph-name="date" unicode="&#58951;" d="M601.499213 207.20353999999998l-101.593701-102.526704-54.828346 54.895538c-6.450394 6.458073-16.125984 6.458073-22.576378 0-6.450394-6.458073-6.450394-16.145182 0-22.603255l66.116535-66.197165c3.225197-3.229036 7.256693-4.843555 11.288189-4.843555s8.062992 1.614518 11.288189 4.843555l112.88189 113.020112c6.450394 6.458073 6.450394 16.145182 0 22.603255C618.431496 213.661612 607.949606 213.661612 601.499213 207.20353999999998zM928.856693 819.937188L894.992126 819.937188 894.992126 839.311406c0 8.88081-7.256693 16.145182-16.125984 16.145182s-16.125984-7.266292-16.125984-16.145182l0-19.374218-88.692913 0L774.047244 839.311406c0 8.88081-7.256693 16.145182-16.125984 16.145182s-16.125984-7.266292-16.125984-16.145182l0-19.374218-88.692913 0L653.102362 839.311406c0 8.88081-7.256693 16.145182-16.125984 16.145182s-16.125984-7.266292-16.125984-16.145182l0-19.374218L524.094488 819.937188 524.094488 839.311406c0 8.88081-7.256693 16.145182-16.125984 16.145182s-16.125984-7.266292-16.125984-16.145182l0-19.374218-80.629921 0L411.212598 839.311406c0 8.88081-7.256693 16.145182-16.125984 16.145182s-16.125984-7.266292-16.125984-16.145182l0-19.374218-88.692913 0L290.267717 839.311406c0 8.88081-7.256693 16.145182-16.125984 16.145182s-16.125984-7.266292-16.125984-16.145182l0-19.374218L169.322835 819.937188 169.322835 839.311406c0 8.88081-7.256693 16.145182-16.125984 16.145182-8.869291 0-16.125984-7.266292-16.125984-16.145182l0-19.374218L102.4 819.937188C45.959055 819.937188 0 769.076985 0 712.566929l0-569.139738c0-56.510056 45.959055-98.489449 102.4-98.489449l202.381102 0c37.896063-78.307012 117.719685-132.39625 210.444094-132.39625s172.548031 54.089239 210.444094 132.39625l203.187402 0c56.440945 0 95.143307 41.979393 95.143307 98.489449L1024 712.566929C1024 769.076985 985.297638 819.937188 928.856693 819.937188zM515.225197-55.16622400000006c-111.269291 0-201.574803 90.416858-201.574803 201.822452s90.305512 201.822452 201.574803 201.822452 201.574803-90.416858 201.574803-201.822452S626.494488-55.16622400000006 515.225197-55.16622400000006zM991.748031 143.427192c0-38.750356-24.188976-66.197165-62.891339-66.197165l-190.286614 0c6.450394 21.796955 10.48189 45.208429 10.48189 69.426202 0 129.167214-104.818898 234.114736-233.826772 234.114736s-233.826772-104.947522-233.826772-234.114736c0-24.219693 4.031496-47.629246 10.48189-69.426202l-189.480315 0c-38.702362 0-70.148031 28.255028-70.148031 66.197165L32.251969 706.9170750000001l959.496063 0L991.748031 143.427192zM153.19685 561.604679l104.818898 0c8.869291 0 16.125984 7.266292 16.125984 16.145182s-7.256693 16.145182-16.125984 16.145182L153.19685 593.895043c-8.869291 0-16.125984-7.266292-16.125984-16.145182S144.327559 561.604679 153.19685 561.604679zM153.19685 432.437465l104.818898 0c8.869291 0 16.125984 7.266292 16.125984 16.145182 0 8.88081-7.256693 16.145182-16.125984 16.145182L153.19685 464.727829c-8.869291 0-16.125984-7.266292-16.125984-16.145182C137.070866 439.703757 144.327559 432.437465 153.19685 432.437465zM153.19685 303.27025100000003l104.818898 0c8.869291 0 16.125984 7.266292 16.125984 16.145182s-7.256693 16.145182-16.125984 16.145182L153.19685 335.560615c-8.869291 0-16.125984-7.266292-16.125984-16.145182S144.327559 303.27025100000003 153.19685 303.27025100000003zM153.19685 174.104957l104.818898 0c8.869291 0 16.125984 7.266292 16.125984 16.145182s-7.256693 16.145182-16.125984 16.145182L153.19685 206.39532099999997c-8.869291 0-16.125984-7.266292-16.125984-16.145182S144.327559 174.104957 153.19685 174.104957zM362.834646 561.604679l104.818898 0c8.869291 0 16.125984 7.266292 16.125984 16.145182s-7.256693 16.145182-16.125984 16.145182L362.834646 593.895043c-8.869291 0-16.125984-7.266292-16.125984-16.145182S353.965354 561.604679 362.834646 561.604679zM362.834646 432.437465l104.818898 0c8.869291 0 16.125984 7.266292 16.125984 16.145182 0 8.88081-7.256693 16.145182-16.125984 16.145182L362.834646 464.727829c-8.869291 0-16.125984-7.266292-16.125984-16.145182C346.708661 439.703757 353.965354 432.437465 362.834646 432.437465zM572.472441 561.604679l104.818898 0c8.869291 0 16.125984 7.266292 16.125984 16.145182s-7.256693 16.145182-16.125984 16.145182l-104.818898 0c-8.869291 0-16.125984-7.266292-16.125984-16.145182S563.60315 561.604679 572.472441 561.604679zM572.472441 432.437465l104.818898 0c8.869291 0 16.125984 7.266292 16.125984 16.145182 0 8.88081-7.256693 16.145182-16.125984 16.145182l-104.818898 0c-8.869291 0-16.125984-7.266292-16.125984-16.145182C556.346457 439.703757 563.60315 432.437465 572.472441 432.437465zM782.110236 561.604679L886.929134 561.604679c8.869291 0 16.125984 7.266292 16.125984 16.145182s-7.256693 16.145182-16.125984 16.145182l-104.818898 0c-8.869291 0-16.125984-7.266292-16.125984-16.145182S773.240945 561.604679 782.110236 561.604679zM782.110236 432.437465L886.929134 432.437465c8.869291 0 16.125984 7.266292 16.125984 16.145182 0 8.88081-7.256693 16.145182-16.125984 16.145182l-104.818898 0c-8.869291 0-16.125984-7.266292-16.125984-16.145182C765.984252 439.703757 773.240945 432.437465 782.110236 432.437465zM782.110236 303.27025100000003L886.929134 303.27025100000003c8.869291 0 16.125984 7.266292 16.125984 16.145182s-7.256693 16.145182-16.125984 16.145182l-104.818898 0c-8.869291 0-16.125984-7.266292-16.125984-16.145182S773.240945 303.27025100000003 782.110236 303.27025100000003zM782.110236 174.104957L886.929134 174.104957c8.869291 0 16.125984 7.266292 16.125984 16.145182s-7.256693 16.145182-16.125984 16.145182l-104.818898 0c-8.869291 0-16.125984-7.266292-16.125984-16.145182S773.240945 174.104957 782.110236 174.104957z"  horiz-adv-x="1025" />

    
    <glyph glyph-name="checkbox" unicode="&#58928;" d="M397.714285 128C415.263245 128 432.812204 134.816422 446.201608 148.44927399999995L811.915891 520.812908C838.694701 548.078604 838.694701 592.285032 811.915891 619.5507279999999 785.137088 646.816424 741.720058 646.816424 714.941248 619.5507279999999L397.714285 296.55600100000004 309.058751 386.823455C282.279942 414.089151 238.862915 414.089151 212.084106 386.823455 185.305298 359.55775900000003 185.305298 315.35133199999996 212.084106 288.085636L349.226964 148.44927399999995C362.616368 134.816422 380.165327 128 397.714285 128ZM0 768.380142C0 838.862643 57.24888 896 127.619858 896L896.380141 896C966.862643 896 1024 838.75112 1024 768.380142L1024-0.3801409999999805C1024-70.86264300000005 966.751117-128 896.380141-128L127.619858-128C57.137357-128 0-70.75111700000002 0-0.3801409999999805L0 768.380142Z"  horiz-adv-x="1024" />

    
    <glyph glyph-name="radio" unicode="&#58895;" d="M497.344-101.31200000000001c-265.344 0-481.344 215.936-481.344 481.344s215.936 481.344 481.344 481.344 481.344-215.936 481.344-481.344S762.752-101.31200000000001 497.344-101.31200000000001zM497.344 829.376C249.6 829.376 48 627.8399999999999 48 380.03200000000004c0-247.808 201.536-449.344 449.344-449.344 247.808 0 449.344 201.536 449.344 449.344C946.688 627.8399999999999 745.152 829.376 497.344 829.376zM512 384m-196.672 0a3.073 3.073 0 1 1 393.344 0 3.073 3.073 0 1 1-393.344 0Z"  horiz-adv-x="1024" />

    
    <glyph glyph-name="arrow-down" unicode="&#58911;" d="M472.064 144.44799999999998L72.832 543.6800000000001c-22.08 22.08-22.08 57.792 0 79.872 22.016 22.016 57.792 22.08 79.872 0L512 264.256l359.296 359.296c22.016 22.016 57.792 22.08 79.872 0 22.08-22.08 22.016-57.792 0-79.872l-399.232-399.232C529.856 122.43200000000002 494.144 122.43200000000002 472.064 144.44799999999998z"  horiz-adv-x="1024" />

    
    <glyph glyph-name="success-reverse" unicode="&#58910;" d="M512.564498 882.45204c-276.60419 0-500.710033-224.105843-500.710033-500.710033s224.105843-500.710033 500.710033-500.710033 500.145535 224.105843 500.145535 500.710033S788.60419 882.45204 512.564498 882.45204zM789.168688 448.352811C632.802646 359.16207299999996 476.436604 105.702315 476.436604 105.702315c-134.350606 164.269019-241.040794 197.574421-241.040794 197.574421l134.350606 77.900772c63.223815-60.401323 106.690187-103.867696 106.690187-103.867696 176.123484 336.441014 312.732084 379.907387 312.732084 379.907387L789.168688 448.352811z"  horiz-adv-x="1024" />

    
    <glyph glyph-name="images" unicode="&#59132;" d="M915.2 615.6l-165 8-9.6 107.6c-2 22.6-22.2 38.4-45.8 36.6L102.8 719.2c-23.6-2-40.6-21-38.8-43.4l42.4-471.6c2-22.6 22.4-38.4 45.8-36.6l30 2.4-4.8-91.6c-1.2-25.2 18.4-45.6 44.8-47L882.6 0c26.4-1.2 48.2 17.2 49.6 42.4L960 569C961.2 594 941.4 614.4 915.2 615.6zM205.2 605l-14.2-269.6L156.2 286l-32 356c0 0.4 0 0.6 0 1s0 0.6 0 1c1 10 8.6 18 19 18.8l522 42.8c10.4 0.8 19.4-6 21-15.8 0-0.4 0.6-0.4 0.6-0.8 0-0.2 0.6-0.4 0.6-0.8l5.4-61.6-438 21C228.4 648.4 206.4 630 205.2 605zM873.4 131.2l-93.4 110.6-55 65.4c-4.8 5.8-12.6 10.6-21.2 11-8.6 0.4-15-3-22.2-8.2l-32.8-23.8c-7-4.2-12.4-7-19.8-6.6-7.2 0.4-13.6 3.2-18.2 7.6-1.6 1.6-4.6 4.4-7 6.8l-85.6 97.8c-6.2 7.8-16.4 12.8-27.6 13.4-11.4 0.6-22.4-4.2-29.6-11.2L258.8 176.4l-13.6-14.8 0.6 13.6 13.6 257.8 6.6 125.8c0 0.4 0 0.8 0 1 0 0.4 0 0.8 0 1 2.8 10.8 12.4 18.6 23.8 18l408.4-19.6 57.4-2.8 116.6-5.6c11.6-0.6 20.6-9.4 20.8-20.4 0-0.4 0.6-0.6 0.6-1 0-0.4 0.6-0.6 0.6-1L873.4 131.2zM746.4 371.4c38.8 0 70.4 31.6 70.4 70.4s-31.4 70.4-70.4 70.4c-38.8 0-70.4-31.4-70.4-70.4S707.4 371.4 746.4 371.4z"  horiz-adv-x="1024" />

    
    <glyph glyph-name="toast" unicode="&#58918;" d="M214.181 438.306c19.094 0 34.59 15.496 34.59 34.59 0 122.448 71.809 218.885 191.905 257.764 16.326 5.258 26.288 21.861 23.383 38.741-0.415 2.767-0.692 5.396-0.692 8.025 0 27.257 25.043 49.394 55.897 49.394 30.854 0 55.897-22.138 55.897-49.394 0-2.629-0.277-5.258-0.692-7.748-3.044-17.157 7.195-33.898 23.936-39.017 122.033-37.357 191.905-131.165 191.905-257.626 0-19.094 15.496-34.59 34.59-34.59s34.59 15.496 34.59 34.59c0 147.63-80.11 263.714-215.703 315.183-5.673 60.325-59.356 107.782-124.524 107.782-65.444 0-119.266-47.734-124.662-108.336-133.379-53.407-215.011-171.704-215.011-314.768 0-19.094 15.496-34.59 34.59-34.59v0zM859.905 300.5v61.847c0 19.094-15.496 34.59-34.59 34.59s-34.59-15.496-34.59-34.59v-75.268c0-8.578 3.182-17.018 9.132-23.383 44.413-48.426 95.607-110.134 105.292-129.366-0.415-12.037-3.736-14.943-36.112-14.943h-698.855c-29.886 0-35.005 8.025-35.974 15.22 10.1 19.647 61.293 80.94 105.707 129.09 5.811 6.365 9.132 14.666 9.132 23.383v75.268c0 19.094-15.496 34.59-34.59 34.59s-34.59-15.496-34.59-34.59v-61.847c-114.977-126.184-114.977-149.982-114.977-161.604 0-42.892 27.672-88.689 105.292-88.689h698.855c26.012 0 105.292 0 105.292 88.689 0 11.622 0 35.558-114.423 161.604v0zM618.329 18.523000000000025c-16.742 9.132-37.772 2.906-46.904-13.974-10.239-18.955-30.162-30.716-51.885-30.716-21.584 0-41.508 11.761-51.885 30.854-9.132 16.742-30.162 22.968-46.904 13.836-16.742-9.132-22.968-30.162-13.836-46.904 22.414-41.231 65.582-66.966 112.625-66.966 47.042 0 90.349 25.597 112.625 66.966 9.132 16.88 2.906 37.911-13.836 46.904v0z"  horiz-adv-x="1024" />

    
    <glyph glyph-name="arrow-left" unicode="&#58915;" d="M616.896-43.51999999999998C629.472-56.54399999999998 646.752-63.903999999999996 664.832-64 705.632-62.303999999999974 737.408-28 735.968 12.799999999999955 736.064 33.91999999999996 727.712 54.176000000000045 712.8 69.12L400.096 384 712.8 698.88C727.712 713.8240000000001 736.064 734.08 735.968 755.2 737.408 796 705.632 830.304 664.832 832 646.752 831.904 629.472 824.544 616.896 811.52L247.04 440.32C216.32 409.056 216.32 358.94399999999996 247.04 327.67999999999995L616.896-43.51999999999998Z"  horiz-adv-x="1024" />

    
    <glyph glyph-name="arrow-right" unicode="&#58917;" d="M407.104-43.51999999999998C394.528-56.54399999999998 377.248-63.903999999999996 359.168-64 318.368-62.303999999999974 286.592-28 288.032 12.799999999999955 287.936 33.91999999999996 296.288 54.176000000000045 311.2 69.12L623.904 384 311.2 698.88C296.288 713.8240000000001 287.936 734.08 288.032 755.2 286.592 796 318.368 830.304 359.168 832 377.248 831.904 394.528 824.544 407.104 811.52L776.96 440.32C807.68 409.056 807.68 358.94399999999996 776.96 327.67999999999995L407.104-43.51999999999998Z"  horiz-adv-x="1024" />

    
    <glyph glyph-name="cell" unicode="&#58889;" d="M61.062727 833.402313L61.062727 654.5376l896.41623 0L957.478957 833.402313 61.062727 833.402313zM61.062727 296.789753l896.41623 0 0 178.873923-896.41623 0L61.062727 296.789753zM61.062727-60.96730400000001l896.41623 0 0 178.873923-896.41623 0L61.062727-60.96730400000001z"  horiz-adv-x="1024" />

    
    <glyph glyph-name="arrow-up" unicode="&#58969;" d="M548.50696 622.276848l393.644405-406.341588c19.046798-19.044752 19.046798-50.791803 0-73.013921-19.045775-19.047822-50.792826-19.047822-69.839625 0L513.58766 514.343627 151.688259 146.09768199999996c-19.047822-19.047822-50.792826-19.047822-69.841671 0-19.045775 19.046798-19.045775 50.79385 0 73.015967l393.645428 406.338518C497.714134 644.499989 529.459139 644.499989 548.50696 622.276848L548.50696 622.276848z"  horiz-adv-x="1024" />

    
    <glyph glyph-name="switch" unicode="&#59002;" d="M716.8 691.2H307.2C137.813333 691.2 0 553.386667 0 384s137.813333-307.2 307.2-307.2h409.6c169.386667 0 307.2 137.813333 307.2 307.2s-137.813333 307.2-307.2 307.2z m0-580.266667H307.2C156.637867 110.93333299999995 34.133333 233.43786699999998 34.133333 384s122.504533 273.066667 273.066667 273.066667h409.6c150.562133 0 273.066667-122.504533 273.066667-273.066667s-122.504533-273.066667-273.066667-273.066667zM307.2 605.866667c-122.333867 0-221.866667-99.5328-221.866667-221.866667s99.5328-221.866667 221.866667-221.866667 221.866667 99.5328 221.866667 221.866667-99.5328 221.866667-221.866667 221.866667z m0-409.6c-103.509333 0-187.733333 84.224-187.733333 187.733333s84.224 187.733333 187.733333 187.733333 187.733333-84.224 187.733333-187.733333-84.224-187.733333-187.733333-187.733333zM824.200533 464.3328L699.733333 339.8656l-56.200533 56.200533a17.0496 17.0496 0 1 1-24.132267-24.132266l68.266667-68.266667a17.015467 17.015467 0 0 1 24.132267 0l136.533333 136.533333a17.0496 17.0496 0 1 1-24.132267 24.132267z"  horiz-adv-x="1024" />

    
    <glyph glyph-name="anchor" unicode="&#58885;" d="M511.98464-128C229.241123-128 0 101.241123 0 383.98464v127.996161l255.99232-255.992321H150.587482A383.839151 383.839151 0 0 1 447.98656 6.459966V319.98656h-63.99808a63.99808 63.99808 0 1 0 0 127.996161h63.99808v75.773726c-74.429767 26.431207-127.99616 96.701099-127.99616 180.218594C319.9904 801.188124 392.500225 880.67374 486.193414 893.34536a126.822862 126.822862 0 0 0 51.582453 0C631.469056 880.67374 703.978881 801.188124 703.978881 703.975041c0-83.517494-53.630391-153.787386-127.99616-180.218594V447.982721h63.99808c35.390938 0 63.99808-28.607142 63.99808-63.998081s-28.607142-63.99808-63.99808-63.99808h-63.99808v-313.526594A383.860484 383.860484 0 0 1 873.381799 255.98848H767.976961l255.99232 255.992321v-127.996161c0-282.743518-229.241123-511.98464-511.984641-511.98464z m0 895.973121a63.99808 63.99808 0 1 1 0-127.99616 63.99808 63.99808 0 1 1 0 127.99616z"  horiz-adv-x="1024" />

    
    <glyph glyph-name="warning-reverse" unicode="&#59191;" d="M585.142857 110.28571399999998v108.571429q0 8-5.428571 13.428571T566.857143 237.71428600000002H457.142857q-7.428571 0-12.857143-5.428572T438.857143 218.85714299999995v-108.571429q0-8 5.428571-13.428571t12.857143-5.428572h109.714286q7.428571 0 12.857143 5.428572t5.428571 13.428571z m-1.142857 213.714286l10.285714 262.285714q0 6.857143-5.714285 10.857143-7.428571 6.285714-13.714286 6.285714H449.142857q-6.285714 0-13.714286-6.285714-5.714286-4-5.714285-12l9.714285-261.142857q0-5.714286 5.714286-9.428571t13.714286-3.714286h105.714286q8 0 13.428571 3.714286t6 9.428571z m-8 533.714286l438.857143-804.571429q20-36-1.142857-72-9.714286-16.571429-26.571429-26.285714t-36.285714-9.714286H73.142857q-19.428571 0-36.285714 9.714286T10.285714-18.85714299999995q-21.142857 36-1.142857 72L448 857.714286q9.714286 17.714286 26.857143 28t37.142857 10.285714 37.142857-10.285714 26.857143-28z"  horiz-adv-x="1024" />

    
    <glyph glyph-name="more" unicode="&#58894;" d="M113.777778 270.222222c62.577778 0 113.777778 51.2 113.777778 113.777778s-51.2 113.777778-113.777778 113.777778-113.777778-51.2-113.777778-113.777778 51.2-113.777778 113.777778-113.777778z m398.222222 0c62.577778 0 113.777778 51.2 113.777778 113.777778s-51.2 113.777778-113.777778 113.777778-113.777778-51.2-113.777778-113.777778 51.2-113.777778 113.777778-113.777778z m398.222222 0c62.577778 0 113.777778 51.2 113.777778 113.777778s-51.2 113.777778-113.777778 113.777778-113.777778-51.2-113.777778-113.777778 51.2-113.777778 113.777778-113.777778z"  horiz-adv-x="1024" />

    
    <glyph glyph-name="close" unicode="&#58921;" d="M816 80m-32 0a32 32 0 1 1 64 0 32 32 0 1 1-64 0ZM512-72a456 456 0 1 0 395.76 229.36 32 32 0 0 0-55.52 32 392 392 0 1 1-145.44-145.44 32 32 0 0 0 32-55.52A456 456 0 0 0 512-72zM376 216a32 32 0 0 0-22.64 54.64L625.12 542.4a32 32 0 1 0 45.28-45.28L398.88 225.6A32 32 0 0 0 376 216zM648 216a32 32 0 0 0-22.64 9.36L353.6 497.12a32 32 0 0 0 45.28 45.28L670.4 270.88A32 32 0 0 0 648 216z"  horiz-adv-x="1024" />

    
    <glyph glyph-name="header" unicode="&#59050;" d="M1006.644098-128H28.124173c-15.348524 0-27.835376 12.486852-27.835376 27.835376V868.163647c0 15.348524 12.486852 27.835376 27.835376 27.835376H1006.644098c15.348524 0 27.835376-12.486852 27.835376-27.835376v-968.329248c0-15.347547-12.486852-27.834399-27.835376-27.834399z m-962.404708 43.950594H990.528881V852.04843H44.23939v-936.097836zM22.264093 694.326352H1012.504177v-43.950593H22.264093zM22.264093 592.75653H1012.504177v-43.950594H22.264093zM22.264093 53.65561700000001h980.049407v-43.950593H22.264093zM207.821547 570.7812329999999h43.950594v-539.101889h-43.950594zM776.223832 570.7812329999999h43.950594v-539.101889h-43.950594zM1002.312523 685.04594a5.860079 5.860079 0 0 0-5.860079-5.860079H39.843354a5.860079 5.860079 0 0 0-5.860079 5.860079V862.304545a5.860079 5.860079 0 0 0 5.860079 5.860079h956.60909a5.860079 5.860079 0 0 0 5.860079-5.860079v-177.258605z"  horiz-adv-x="1058" />

    
    <glyph glyph-name="button" unicode="&#59024;" d="M368 377.6c-3.2 6.4-6.4 9.6-12.8 16-3.2 3.2-9.6 6.4-12.8 9.6 3.2 3.2 6.4 3.2 6.4 6.4 3.2 3.2 3.2 6.4 6.4 9.6 0 3.2 3.2 6.4 3.2 12.8v12.8c0 9.6-3.2 19.2-6.4 28.8-3.2 9.6-9.6 16-12.8 22.4-6.4 6.4-12.8 9.6-19.2 12.8-6.4 3.2-16 3.2-22.4 3.2H224v-252.8h80c9.6 0 19.2 3.2 28.8 6.4 9.6 3.2 16 9.6 22.4 16 6.4 6.4 12.8 16 16 25.6 3.2 9.6 6.4 19.2 6.4 32 0 6.4 0 16-3.2 22.4s-3.2 12.8-6.4 16z m-96 89.6h16c6.4 0 12.8-3.2 16-6.4 6.4-3.2 6.4-9.6 6.4-19.2s-3.2-16-6.4-19.2c-3.2-6.4-9.6-6.4-16-6.4h-16v51.2z m54.4-144c-3.2-3.2-3.2-6.4-6.4-9.6-3.2-3.2-6.4-3.2-9.6-6.4-3.2 0-6.4-3.2-12.8-3.2H272v64h25.6c9.6 0 16-3.2 22.4-9.6 6.4-6.4 9.6-12.8 9.6-25.6 0 0-3.2-6.4-3.2-9.6zM748.8 416v-48c-6.4 6.4-9.6 16-16 25.6-6.4 9.6-12.8 16-19.2 22.4L640 512h-41.6v-252.8h51.2v160l19.2-28.8c6.4-9.6 12.8-19.2 22.4-28.8l83.2-108.8H800v256h-51.2V416zM896 672H128c-35.2 0-64-28.8-64-64v-448c0-35.2 28.8-64 64-64h768c35.2 0 64 28.8 64 64V608c0 35.2-28.8 64-64 64z m0-480c0-19.2-12.8-32-32-32H160c-19.2 0-32 12.8-32 32V576c0 19.2 12.8 32 32 32h704c19.2 0 32-12.8 32-32v-384zM393.6 464h64v-204.8H512V464h64v48H393.6z"  horiz-adv-x="1024" />

    
    <glyph glyph-name="wrapper" unicode="&#59034;" d="M800 96h64v-64h-64v64z m-128 0h64v-64h-64v64z m-128 0h64v-64h-64v64z m-128 0h64v-64h-64v64z m-256 0h64v-64h-64v64z m0 640h64v-64h-64v64z m128-640h64v-64h-64v64zM160 224h64v-64h-64v64z m0 128h64v-64h-64v64z m0 128h64v-64h-64v64z m0 128h64v-64h-64v64z m640-384h64v-64h-64v64z m0 128h64v-64h-64v64z m0 128h64v-64h-64v64z m0 128h64v-64h-64v64z m0 128h64v-64h-64v64z m-128 0h64v-64h-64v64z m-128 0h64v-64h-64v64z m-128 0h64v-64h-64v64z m-128 0h64v-64h-64v64zM896 832H128c-35.2 0-64-28.8-64-64v-768c0-35.2 28.8-64 64-64h768c35.2 0 64 28.8 64 64V768c0 35.2-28.8 64-64 64z m0-800c0-19.2-12.8-32-32-32H160c-19.2 0-32 12.8-32 32V736c0 19.2 12.8 32 32 32h704c19.2 0 32-12.8 32-32v-704z"  horiz-adv-x="1024" />

    
    <glyph glyph-name="dialog" unicode="&#59039;" d="M640 128H256c-19.2 0-32-12.8-32-32s16-32 32-32h384c19.2 0 32 12.8 32 32s-16 32-32 32zM896 832H256c-19.2 0-32-12.8-32-32s12.8-32 32-32h608c19.2 0 32-12.8 32-32v-608c0-19.2 12.8-32 32-32s32 12.8 32 32V768c0 35.2-28.8 64-64 64zM768 704H128c-35.2 0-64-28.8-64-64v-640c0-35.2 28.8-64 64-64h640c35.2 0 64 28.8 64 64V640c0 35.2-28.8 64-64 64z m0-672c0-16-16-32-32-32H160c-16 0-32 16-32 32V608c0 16 16 32 32 32h576c16 0 32-16 32-32v-576z"  horiz-adv-x="1024" />

    
    <glyph glyph-name="row" unicode="&#59091;" d="M921.6 314.36800000000005c0-12.288-8.192-20.48-20.48-20.48s-20.48 8.192-20.48 20.48V691.2c0 34.816-26.624 61.44-61.44 61.44h-614.4c-34.816 0-61.44-26.624-61.44-61.44v-614.4c0-34.816 26.624-61.44 61.44-61.44h614.4c34.816 0 61.44 26.624 61.44 61.44v90.112c0 12.288 8.192 20.48 20.48 20.48s20.48-8.192 20.48-20.48v-90.112c0-57.344-45.056-102.4-102.4-102.4h-614.4c-57.344 0-102.4 45.056-102.4 102.4v614.4c0 57.344 45.056 102.4 102.4 102.4h614.4c57.344 0 102.4-45.056 102.4-102.4v-376.832z m-430.08 315.392c0 12.288 8.192 20.48 20.48 20.48s20.48-8.192 20.48-20.48v-491.52c0-12.288-8.192-20.48-20.48-20.48s-20.48 8.192-20.48 20.48v491.52z m-204.8 0c0 12.288 8.192 20.48 20.48 20.48s20.48-8.192 20.48-20.48v-491.52c0-12.288-8.192-20.48-20.48-20.48s-20.48 8.192-20.48 20.48v491.52z m409.6 0c0 12.288 8.192 20.48 20.48 20.48s20.48-8.192 20.48-20.48v-491.52c0-12.288-8.192-20.48-20.48-20.48s-20.48 8.192-20.48 20.48v491.52z"  horiz-adv-x="1024" />

    
    <glyph glyph-name="warning" unicode="&#58881;" d="M658.20672 740.67968v-389.12a71.68 71.68 0 0 0-71.68-71.68h-116.6336a71.68 71.68 0 0 0-71.68 71.68v389.12a71.68 71.68 0 0 0 71.68 71.68h116.6336a71.68 71.68 0 0 0 71.68-71.68z m-71.68-532.52096h-116.6336a71.68 71.68 0 0 1-71.68-71.68v-122.83904a71.68 71.68 0 0 1 71.68-71.68h116.6336a71.68 71.68 0 0 1 71.68 71.68v122.83904a71.68 71.68 0 0 1-71.68 71.68z"  horiz-adv-x="1024" />

    
    <glyph glyph-name="panel" unicode="&#59126;" d="M540.7 275.1v-251.6c0-46.4 37.6-84 84-84h251.6c46.4 0 84 37.6 84 84V275.1c0 46.4-37.6 84-84 84H624.7c-46.4-0.1-84-37.6-84-84zM540.7 750.5V499c0-46.4 37.6-84 84-84h251.6c46.4 0 84 37.6 84 84V750.5c0 46.4-37.6 84-84 84H624.7c-46.4 0-84-37.5-84-84zM65.3 275.1v-251.6c0-46.4 37.6-84 84-84h251.6c46.4 0 84 37.6 84 84V275.1c0 46.4-37.6 84-84 84H149.3c-46.5-0.1-84-37.6-84-84zM65.3 750.5V499c0-46.4 37.6-84 84-84h251.6c46.4 0 84 37.6 84 84V750.5c0 46.4-37.6 84-84 84H149.3c-46.5 0-84-37.5-84-84zM428.9 526.9V499c0-15.5-12.5-28-28-28H149.3c-15.5 0-28 12.5-28 28v27.9h307.6zM904.3 526.9V499c0-15.5-12.5-28-28-28H624.7c-15.5 0-28 12.5-28 28v27.9h307.6zM904.3 51.39999999999998v-27.9c0-15.5-12.5-28-28-28H624.7c-15.5 0-28 12.5-28 28v27.9h307.6zM428.9 51.39999999999998v-27.9c0-15.5-12.5-28-28-28H149.3c-15.5 0-28 12.5-28 28v27.9h307.6zM428.9 722.7V750.6c0 15.5-12.5 28-28 28H149.3c-15.5 0-28-12.5-28-28v-27.9h307.6zM428.9 554.8V694.7H121.2v-139.8h307.7zM904.3 722.7V750.6c0 15.5-12.5 28-28 28H624.7c-15.5 0-28-12.5-28-28v-27.9h307.6zM904.3 554.8V694.7H596.7v-139.8h307.6zM904.3 247.20000000000005v27.9c0 15.5-12.5 28-28 28H624.7c-15.5 0-28-12.5-28-28v-27.9h307.6zM596.7 219.20000000000005h307.6v-139.8H596.7zM428.9 247.20000000000005v27.9c0 15.5-12.5 28-28 28H149.3c-15.5 0-28-12.5-28-28v-27.9h307.6zM121.2 219.20000000000005h307.7v-139.8H121.2z"  horiz-adv-x="1024" />

    
    <glyph glyph-name="picker" unicode="&#58998;" d="M512.064 861.248L130.176 479.488h763.648zM512.064-93.24800000000005l381.76 381.824H130.176z"  horiz-adv-x="1024" />

    
    <glyph glyph-name="loading" unicode="&#58973;" d="M249.836 685.23c5.558 3.827 10.73 7.527 15.812 10.695 4.967 3.314 9.807 6.121 14.208 8.785 2.18 1.362 4.374 2.515 6.425 3.673l5.873 3.281c0.945 0.551 1.789 0.953 2.625 1.377l2.425 1.226 4.381 2.233 1.954 1.004 2.219 1.093 3.918 1.924 7.184 3.527c2.883 1.44 5.996 3.272 8.694 5.22 26.969 19.458 33.057 57.094 13.599 84.063-19.458 26.968-57.094 33.057-84.063 13.599l-6.49-4.682-3.54-2.554-2.071-1.499-2.62-1.947-5.824-4.351a7267.87 7267.87 0 0 1-3.193-2.399c-1.091-0.824-2.25-1.676-3.282-2.533a33346.62 33346.62 0 0 0-6.735-5.441c-2.343-1.915-4.833-3.859-7.308-6.046-4.991-4.313-10.423-8.905-15.952-14.121-5.645-5.071-11.353-10.792-17.394-16.739-5.886-6.125-12.079-12.515-18.185-19.505-12.303-13.875-24.827-29.53-36.839-46.835a494.61 494.61 0 0 1-33.896-56.497 491.342 491.342 0 0 1-27.329-64.159c-1.02-2.77-1.888-5.605-2.789-8.428l-2.688-8.477c-1.692-5.691-3.266-11.429-4.857-17.152l-2.135-8.669c-0.683-2.896-1.479-5.756-2.051-8.682l-1.84-8.729-0.914-4.358-0.785-4.387a479.254 479.254 0 0 1-7.583-69.967c-0.302-5.759-0.239-11.514-0.279-17.214l-0.017-4.267c-0.001-1.42 0.069-2.841 0.101-4.257l0.25-8.464 0.127-4.204 0.264-4.188 0.531-8.317 0.278-4.451 0.399-3.933 0.792-7.821c0.14-1.313 0.244-2.561 0.412-3.918l0.527-4.098 1.056-8.115c0.185-1.337 0.33-2.695 0.549-4.002l0.648-3.91 1.289-7.744c1.825-10.246 3.911-20.188 6.263-29.766a463.195 463.195 0 0 1 16.342-52.81l2.255-5.904 1.108-2.899 1.186-2.836 4.611-10.976c3.247-7.033 6.19-13.723 9.353-19.831 6.048-12.328 12.043-22.661 17.007-31.096 5.121-8.359 9.212-14.84 12.197-19.141l4.472-6.638-3.293 7.292c-2.209 4.713-5.148 11.776-8.748 20.761-3.443 9.059-7.545 20.055-11.346 32.919-2.041 6.376-3.771 13.301-5.726 20.516l-2.612 11.204-0.667 2.878-0.583 2.935-1.183 5.957c-3.105 16.055-5.568 33.549-6.889 52.052-0.668 9.251-1.027 18.753-1.1 28.437l0.03 7.3 0.014 3.67c0.002 1.227 0.084 2.416 0.122 3.629l0.284 7.263 0.139 3.644c0.053 1.229 0.166 2.577 0.247 3.863a35704.717 35704.717 0 0 0 0.798 11.787l0.017 0.247c0.013-0.588 0.018-0.028 0.027-0.098l0.05 0.472 0.101 0.945 0.2 1.891 0.8 7.581 0.4 3.801 0.535 3.801 1.069 7.62c0.187 1.271 0.335 2.545 0.555 3.815l0.67 3.811c0.909 5.082 1.708 10.185 2.859 15.253a424.734 424.734 0 0 0 17.057 60.03l1.316 3.663 1.437 3.623 2.859 7.225c0.907 2.417 2.03 4.761 3.033 7.135l3.079 7.082c2.208 4.653 4.37 9.295 6.624 13.867l3.508 6.783c1.167 2.252 2.294 4.513 3.565 6.702a414.503 414.503 0 0 0 31.89 49.502 407.116 407.116 0 0 0 35.476 41.25 406.598 406.598 0 0 0 35.793 32.288c5.751 4.687 11.515 8.857 16.918 12.861zM1023.966 385.514l-0.001 0.005-0.875 7.954-1.051 9.554-0.687 6.125-1.153 8.152c-0.828 5.729-1.741 12.089-2.813 18.907l-4.259 20.887c-0.691 3.726-1.738 7.517-2.729 11.425l-3.102 12.024c-0.558 2.048-1.019 4.142-1.677 6.221l-1.958 6.314-4.07 13.021-1.049 3.333-1.211 3.324c-0.814 2.223-1.638 4.467-2.469 6.732-1.673 4.522-3.34 9.131-5.115 13.781l-5.938 13.981-3.046 7.123c-1.037 2.384-2.247 4.72-3.375 7.102l-6.997 14.388c-0.569 1.22-1.222 2.408-1.877 3.598l-1.958 3.583-3.95 7.211-3.995 7.265c-1.354 2.422-2.881 4.773-4.324 7.175l-8.875 14.427c-12.567 18.998-26.533 37.793-42.018 55.643-15.662 17.71-32.638 34.534-50.581 50.045a527.617 527.617 0 0 1-56.726 41.602c-19.622 12.201-39.702 22.647-59.484 31.64l-14.925 6.188c-2.47 0.995-4.881 2.072-7.356 2.979l-7.402 2.651-7.306 2.609-3.615 1.289c-1.198 0.434-2.394 0.863-3.618 1.21l-14.37 4.353c-2.366 0.691-4.68 1.466-7.035 2.069l-7.02 1.754-13.669 3.402c-4.524 0.941-8.985 1.788-13.341 2.655l-6.47 1.271-3.184 0.621-3.186 0.465-12.373 1.797-5.96 0.862c-1.957 0.298-3.928 0.403-5.85 0.61l-11.239 1.057c-3.638 0.329-7.151 0.735-10.598 0.81l-19.18 0.823-16.258-0.11-6.935-0.057c-2.177-0.091-4.219-0.237-6.115-0.34l-9.619-0.566-7.982-0.472 7.959-0.875 9.529-1.05c1.872-0.215 3.884-0.411 6.023-0.683l6.797-1.101 15.801-2.578 18.393-3.951c3.283-0.628 6.614-1.603 10.051-2.514l10.571-2.838c1.801-0.509 3.644-0.92 5.469-1.526l5.542-1.793 11.432-3.697 2.927-0.946 2.914-1.104 5.902-2.242c3.965-1.517 8.007-3.017 12.084-4.613l12.243-5.366 6.241-2.733c2.088-0.929 4.128-2.029 6.212-3.044l12.59-6.277c1.068-0.506 2.106-1.094 3.145-1.685l3.131-1.761 6.302-3.542 6.353-3.568c2.118-1.209 4.165-2.586 6.263-3.878l12.601-7.922c16.565-11.247 32.949-23.681 48.48-37.44a473.639 473.639 0 0 0 43.435-44.87 467.917 467.917 0 0 0 35.892-50.115c10.476-17.304 19.389-34.971 27.062-52.322 1.761-4.404 3.506-8.772 5.234-13.098 0.843-2.166 1.771-4.273 2.532-6.444l2.224-6.49 2.201-6.396 1.093-3.162c0.368-1.047 0.734-2.092 1.019-3.166l3.633-12.572c0.578-2.068 1.242-4.086 1.738-6.146l1.441-6.137 2.829-11.931 2.152-11.645 1.045-5.64 0.514-2.772 0.362-2.779 1.423-10.784 0.697-5.188c0.245-1.704 0.3-3.423 0.458-5.098l0.794-9.786c0.249-3.167 0.584-6.22 0.595-9.223l0.516-16.686-0.346-13.152-0.109-5.579-0.343-6.014-0.567-9.595-0.472-7.988c-0.169-3.219-0.107-6.829 0.256-10.138 3.638-33.056 33.383-56.904 66.438-53.267 33.056 3.637 56.905 33.382 53.268 66.438zM885.176 133.54899999999998l-4.868-5.897c-1.711-2.052-3.44-4.238-5.4-6.399-3.858-4.365-7.946-9.128-12.608-13.957-4.517-4.944-9.632-9.919-14.922-15.205-5.467-5.131-11.147-10.547-17.374-15.864-12.349-10.726-26.262-21.624-41.613-32.046a434.435 434.435 0 0 0-50.026-29.303 431.157 431.157 0 0 0-56.59-23.39c-2.436-0.874-4.935-1.6-7.419-2.361l-7.455-2.279c-5.006-1.425-10.053-2.742-15.078-4.091-2.536-0.593-5.075-1.187-7.617-1.78-2.545-0.566-5.051-1.25-7.622-1.714l-7.663-1.523-3.822-0.763-3.851-0.64a419.278 419.278 0 0 0-61.304-5.938c-5.039-0.219-10.081-0.088-15.068-0.072l-3.733 0.022c-1.238 0.012-2.392 0.1-3.587 0.145l-7.067 0.313-3.505 0.146-3.997 0.27-7.961 0.537-1.981 0.133-0.989 0.067-0.494 0.033c0.221 0.008-0.844 0.005 0.433 0.022l-0.226 0.025-3.593 0.396-7.127 0.78a406.62 406.62 0 0 0-53.494 10.013 402.48 402.48 0 0 0-45.808 14.792l-5.111 2.022-2.511 0.99-2.452 1.066-9.494 4.124c-6.074 2.917-11.861 5.522-17.131 8.352-10.648 5.379-19.552 10.718-26.826 15.11l-1.338 0.807a1085.391 1085.391 0 0 1-3.457 2.276l-4.116 2.687c-0.638 0.414-1.252 0.813-1.842 1.194l-2.021 1.354-3.621 2.439-6.637 4.472c-2.685 1.782-5.825 3.567-8.857 4.938-30.307 13.689-65.973 0.218-79.662-30.089-13.689-30.308-0.218-65.974 30.089-79.663l7.293-3.294 3.979-1.797 2.369-1.063 2.994-1.302c2.073-0.896 4.3-1.857 6.676-2.885l3.672-1.574 1.917-0.819 1.9-0.745c10.22-4.014 22.646-8.772 37.189-13.242 7.215-2.375 15.042-4.443 23.216-6.727l12.687-3.1 3.261-0.787 3.325-0.701 6.75-1.415c18.195-3.715 38.044-6.719 59.054-8.439a494.284 494.284 0 0 1 65.863-0.997l8.535 0.519 4.285 0.266 0.268 0.017c1.44 0.02 0.541 0.02 0.927 0.03l0.492 0.051 0.986 0.1 1.977 0.201 7.938 0.807 3.991 0.406 4.502 0.554 9.015 1.133c1.492 0.2 3.034 0.365 4.486 0.598l4.344 0.709c5.795 0.965 11.61 1.832 17.399 3.066a485.178 485.178 0 0 1 68.692 18.701l4.2 1.463 4.157 1.588 8.292 3.176c2.771 1.016 5.468 2.251 8.194 3.37l8.134 3.434c5.351 2.451 10.685 4.869 15.941 7.39l7.805 3.918c2.591 1.307 5.188 2.576 7.712 3.991a474.344 474.344 0 0 1 57.071 35.83 467.174 467.174 0 0 1 47.72 40.068 466.596 466.596 0 0 1 37.51 40.586c5.455 6.542 10.335 13.082 14.998 19.24 4.483 6.313 8.789 12.218 12.512 18 3.868 5.667 7.179 11.177 10.297 16.204 1.589 2.492 2.957 4.989 4.318 7.332 1.349 2.348 2.635 4.586 3.854 6.711 4.686 8.611 8.271 15.384 10.509 20.116l3.527 7.185-4.682-6.489c-2.985-4.266-7.65-10.33-13.635-17.935z"  horiz-adv-x="1024" />

    
    <glyph glyph-name="badge" unicode="&#59284;" d="M604.16 624.64c-40.96-40.96-40.96-107.52 0-151.04 40.96-40.96 107.52-40.96 151.04 0 40.96 40.96 40.96 107.52 0 151.04-43.52 40.96-110.08 40.96-151.04 0zM716.8 512c-20.48-20.48-53.76-20.48-74.24 0-20.48 20.48-20.48 53.76 0 74.24 20.48 20.48 53.76 20.48 74.24 0 20.48-20.48 20.48-53.76 0-74.24z m156.16 281.6H529.92c-28.16 0-33.28-12.8-58.88-38.4L133.12 417.28c-40.96-40.96-40.96-107.52 0-151.04l263.68-261.12c40.96-40.96 107.52-40.96 151.04 0l337.92 337.92c20.48 20.48 38.4 33.28 38.4 58.88V744.96c-2.56 25.6-25.6 48.64-51.2 48.64zM509.44 43.51999999999998c-20.48-20.48-53.76-20.48-74.24 0L171.52 304.64c-20.48 20.48-20.48 53.76 0 74.24l38.4 38.4 337.92-337.92-38.4-35.84z m363.52 384c0-12.8-12.8-33.28-25.6-46.08L583.68 117.75999999999999 245.76 455.68 509.44 716.8c12.8 12.8 30.72 28.16 46.08 28.16h294.4c12.8 0 25.6-10.24 25.6-25.6v-291.84z"  horiz-adv-x="1024" />

    
    <glyph glyph-name="swiper" unicode="&#58883;" d="M947.104 486.392v-168.663H795.768c-7.305 0-12.332-1.515-15.082-4.555-2.707-3.051-4.082-7.605-4.082-13.675v-23.708c0-4.866-1.977-9.12-5.93-12.772-3.953-3.642-8.98-6.069-15.039-7.294-6.059-1.214-12.762-0.902-20.066 0.913-7.305 1.826-14.266 6.08-20.969 12.762-17.617 17.026-35.707 36.48-54.227 58.352-18.563 21.893-35.707 41.637-51.52 59.265-3.652 4.254-5.156 10.033-4.555 17.327s3.309 13.675 8.207 19.143c16.414 19.454 33.73 38.597 51.949 57.438l60.156 59.265c3.051 3.04 7.477 5.017 13.234 5.93a65.94 65.94 0 0 0 17.316 0.451c5.801-0.602 10.785-2.127 15.039-4.555 4.297-2.428 6.402-5.167 6.402-8.207v-13.675c0-6.08 1.375-13.224 4.082-21.42 2.75-8.207 9.582-12.321 20.539-12.321h145.882v-0.001zM91.896 317.72900000000004V486.392h145.879c10.313 0 17.016 2.288 20.066 6.843 3.008 4.565 4.555 9.883 4.555 15.952v14.599c0 7.283 2.105 12.912 6.359 16.854 4.254 3.953 9.281 6.392 15.039 7.305 5.801 0.902 11.559 0.602 17.359-0.913 5.758-1.525 10.141-3.803 13.191-6.843l60.199-59.265c18.219-18.842 35.535-37.984 51.949-57.438 4.855-5.468 7.605-11.849 8.207-19.143s-1.203-13.073-5.457-17.327c-15.813-17.628-33-37.372-51.52-59.265-18.563-21.871-36.609-41.325-54.27-58.352-6.66-6.682-13.664-11.236-20.969-13.675-7.262-2.428-13.793-3.04-19.594-1.815-5.758 1.214-10.613 4.104-14.566 8.658s-5.93 10.785-5.93 18.691v23.708c0 6.069-1.375 9.722-4.125 10.936-2.707 1.214-8.035 1.826-15.941 1.826H91.896v0.001z m741.211 454.953c15.813 0 30.551-3.04 44.258-9.12 13.664-6.069 25.652-14.287 36.008-24.61 10.313-10.334 18.52-22.333 24.621-36.019 6.059-13.675 9.109-28.413 9.109-44.215v-113.975H833.107V658.718H547.752v-513.305h285.355V259.37699999999995h113.996v-113.964c0-15.802-3.051-30.551-9.109-44.215-6.102-13.686-14.309-25.685-24.621-36.019-10.355-10.334-22.344-18.541-36.008-24.621-13.707-6.069-28.445-9.109-44.258-9.109H205.85c-15.813 0-30.551 3.04-44.215 9.109-13.664 6.08-25.695 14.287-36.008 24.621-10.355 10.334-18.563 22.333-24.621 36.019-6.059 13.664-9.109 28.413-9.109 44.215V259.37699999999995H205.85v-113.964h285.398V658.718H205.85v-113.975H91.896V658.718c0 15.802 3.051 30.54 9.109 44.215 6.059 13.686 14.266 25.685 24.621 36.019 10.313 10.323 22.344 18.541 36.008 24.61 13.664 6.08 28.402 9.12 44.215 9.12h627.258z m0 0"  horiz-adv-x="1024" />

    
    <glyph glyph-name="popup" unicode="&#58887;" d="M813.018 796.804c15.168 0 29.305-2.911 42.41-8.733s24.578-13.686 34.504-23.59c9.883-9.904 17.746-21.409 23.59-34.515s8.723-27.231 8.723-42.378v-491.949c0-15.146-2.879-29.272-8.723-42.378s-13.707-24.61-23.59-34.515c-9.926-9.904-21.398-17.768-34.504-23.59s-27.242-8.733-42.41-8.733H703.791V195.639h54.184c15.168 0 28.102 5.242 38.887 15.727s16.156 23.3 16.156 38.446V523.308c0 15.146-5.371 28.112-16.156 38.887s-23.719 16.167-38.887 16.167H321.111c-15.168 0-28.145-5.393-38.887-16.167-10.785-10.774-16.199-23.74-16.199-38.887v-54.173H156.799V687.588c0 15.146 2.922 29.272 8.766 42.378 5.801 13.105 13.664 24.61 23.59 34.515 9.883 9.904 21.398 17.768 34.504 23.59s27.242 8.733 42.367 8.733h546.992zM539.521 414.092c15.168 0 29.305-2.911 42.41-8.744 13.105-5.822 24.578-13.686 34.504-23.59 9.883-9.904 17.746-21.409 23.59-34.515s8.723-27.231 8.723-42.378v-218.442c0-15.157-2.879-29.272-8.723-42.389-5.844-13.095-13.707-24.61-23.59-34.504-9.926-9.904-21.398-17.778-34.504-23.601s-27.242-8.733-42.41-8.733H211.885c-15.168 0-29.434 2.911-42.84 8.733s-25.051 13.696-34.934 23.601c-9.926 9.894-17.789 21.409-23.59 34.504-5.844 13.116-8.766 27.231-8.766 42.389V304.865c0 15.146 2.922 29.272 8.766 42.378 5.801 13.105 13.664 24.61 23.59 34.515 9.883 9.904 21.527 17.768 34.934 23.59 13.406 5.833 27.672 8.744 42.84 8.744h327.636z m0-218.453c0 15.146-5.371 27.962-16.156 38.446s-23.719 15.727-38.887 15.727H266.025c-15.125 0-27.93-5.242-38.414-15.727s-15.727-23.3-15.727-38.446v-55.043c0-15.146 5.242-27.962 15.727-38.457 10.484-10.474 23.289-15.716 38.414-15.716h218.453c15.168 0 28.102 5.242 38.887 15.716 10.785 10.495 16.156 23.311 16.156 38.457v55.043z m0 0"  horiz-adv-x="1024" />

    
    <glyph glyph-name="field" unicode="&#59183;" d="M860 392c-19.9 0-36-16.1-36-36 0-1.4 0.1-2.7 0.2-4h-0.2v-344H136V696h376c19.9 0 36 16.1 36 36s-16.1 36-36 36H136c-39.8 0-72-32.2-72-72v-688c0-39.8 32.2-72 72-72h688c39.8 0 72 32.2 72 72V352h-0.2c0.1 1.3 0.2 2.6 0.2 4 0 19.9-16.1 36-36 36zM1002.7 795.7L923.4 875c-28.1 28.1-73.9 27.9-102-0.2L424.2 477.6c-2.9-2.9-5.2-6.4-6.8-10.2L317.6 232c-5.6-13.2-1.7-26.5 6.8-35.1 8.5-8.6 21.9-12.5 35.2-6.9l235.5 99.7c3.8 1.6 7.2 3.9 10.2 6.8l397.2 397.2c28.1 28.1 28.3 73.9 0.2 102zM559.8 353l-137.4-58.2 58.2 137.4L759.4 711l79.2-79.2L559.8 353z m391.7 391.7l-62-62-79.2 79.2 62 62 0.2 0.2 79.2-79.2-0.2-0.2z"  horiz-adv-x="1024" />

    
    <glyph glyph-name="double-arrow-up" unicode="&#58904;" d="M883.09333333-32.533333330000005L512 338.55999999999995 140.90666667-32.533333330000005 68.90666667 39.466666669999995 512 482.45333333 955.09333333 39.466666669999995zM883.09333333 285.54666667000004L512 656.64 140.90666667 285.54666667000004l-72 71.89333333L512 800.53333333l443.09333333-443.09333333z"  horiz-adv-x="1024" />

    
    <glyph glyph-name="double-arrow-down" unicode="&#58905;" d="M164.1 774.5L512 426.6l347.9 347.9 67.5-67.5L512 291.70000000000005 96.6 707zM164.1 476.3L512 128.39999999999998l347.9 347.9 67.5-67.4L512-6.5 96.6 408.9z"  horiz-adv-x="1024" />

    
    <glyph glyph-name="tab" unicode="&#58903;" d="M896-36.571428999999966h-768A18.285714 18.285714 0 0 0 109.714286-18.285713999999984V786.285714a18.285714 18.285714 0 0 0 18.285714 18.285715h768a18.285714 18.285714 0 0 0 18.285714-18.285715v-804.571428a18.285714 18.285714 0 0 0-18.285714-18.285715zM146.285714 0h731.428572v768H146.285714zM877.714286 219.42857100000003H146.285714a18.285714 18.285714 0 0 0 0 36.571429h731.428572a18.285714 18.285714 0 0 0 0-36.571429zM329.142857 54.85714299999995H256a18.285714 18.285714 0 0 0-18.285714 18.285714v73.142857A18.285714 18.285714 0 0 0 256 164.57142899999997h73.142857a18.285714 18.285714 0 0 0 18.285714-18.285715v-73.142857a18.285714 18.285714 0 0 0-18.285714-18.285714z m-54.857143 36.571428h36.571429v36.571429h-36.571429zM548.571429 54.85714299999995h-73.142858a18.285714 18.285714 0 0 0-18.285714 18.285714v73.142857a18.285714 18.285714 0 0 0 18.285714 18.285715h73.142858a18.285714 18.285714 0 0 0 18.285714-18.285715v-73.142857a18.285714 18.285714 0 0 0-18.285714-18.285714z m-54.857143 36.571428h36.571428v36.571429h-36.571428zM768 54.85714299999995h-73.142857a18.285714 18.285714 0 0 0-18.285714 18.285714v73.142857a18.285714 18.285714 0 0 0 18.285714 18.285715h73.142857a18.285714 18.285714 0 0 0 18.285714-18.285715v-73.142857a18.285714 18.285714 0 0 0-18.285714-18.285714z m-54.857143 36.571428h36.571429v36.571429h-36.571429z"  horiz-adv-x="1024" />

    
    <glyph glyph-name="sticky" unicode="&#59300;" d="M745.611636 212.43345499999998l181.643637 181.59709a34.839273 34.839273 0 0 1-1.978182 51.2c-83.735273 71.842909-198.749091 96.325818-304.360727 65.815273l-189.975273 148.526546a191.255273 191.255273 0 0 1-55.202909 156.392727 34.909091 34.909091 0 0 1-49.361455 0L103.330909 592.919273a34.909091 34.909091 0 0 1 0-49.384728 191.069091 191.069091 0 0 1 156.392727-55.202909l143.173819-183.156363c-38.097455-109.242182-15.290182-233.425455 60.532363-321.792a34.909091 34.909091 0 0 1 51.2-1.954909l181.597091 181.643636 198.376727-198.376727c6.818909-6.795636 15.755636-10.193455 24.669091-10.193455a34.909091 34.909091 0 0 1 24.669091 59.578182l-198.353454 198.353455z"  horiz-adv-x="1024" />

    
    <glyph glyph-name="divider" unicode="&#59109;" d="M153.6 742.4h716.8a51.2 51.2 0 0 0 0-102.4H153.6a51.2 51.2 0 1 0 0 102.4z m0-614.4h716.8a51.2 51.2 0 0 0 0-102.4H153.6a51.2 51.2 0 0 0 0 102.4z m0 307.2h131.6352a51.2 51.2 0 1 0 0-102.4H153.6a51.2 51.2 0 0 0 0 102.4z m292.5568 0h131.6864a51.2 51.2 0 0 0 0-102.4H446.1568a51.2 51.2 0 0 0 0 102.4z m292.608 0H870.4a51.2 51.2 0 0 0 0-102.4h-131.6352a51.2 51.2 0 0 0 0 102.4z"  horiz-adv-x="1024" />

    
    <glyph glyph-name="error" unicode="&#58880;" d="M830.303936-94.60541899999998l-317.956956 317.672558-317.843197-317.672558a113.929836 113.929836 0 0 0-161.026143 0 113.702318 113.702318 0 0 0 0 160.912384L351.377716 383.979523 33.42076 701.652081a113.759197 113.759197 0 0 0 0 160.912385 113.929836 113.929836 0 0 0 161.083023 0l317.843197-317.786318 317.956956 317.786318c44.650485 43.057856 121.324184 43.057856 159.604154-1.42199 38.27997-44.536726 44.536726-114.896789 1.30823-159.490395L673.373124 383.979523l317.843196-317.672558a113.759197 113.759197 0 0 0-160.969264-160.912384z"  horiz-adv-x="1024" />

    
    <glyph glyph-name="success" unicode="&#58892;" d="M0 247.57527300000004S286.068364 128.79127300000005 428.218182-128C599.04 189.812364 926.952727 486.213818 1024 508.136727V896C632.692364 639.208727 444.788364 166.35345500000005 444.788364 166.35345500000005L238.964364 384 0 247.57527300000004z"  horiz-adv-x="1024" />

    
    <glyph glyph-name="double-arrow-right" unicode="&#59301;" d="M121.5 36.10000000000002L469.4 384l-347.9 347.9 67.5 67.5L604.3 384 189-31.399999999999977zM419.7 36.10000000000002L767.6 384l-347.9 347.9 67.4 67.5L902.5 384 487.1-31.399999999999977z"  horiz-adv-x="1024" />

    


  </font>
</defs>
</svg>
